<svg width="22" height="22" viewBox="0 0 22 22" fill="none" xmlns="http://www.w3.org/2000/svg">
<path d="M20 3H2C1.44772 3 1 3.44772 1 4V20C1 20.5523 1.44772 21 2 21H20C20.5523 21 21 20.5523 21 20V4C21 3.44772 20.5523 3 20 3Z" stroke="#4E4E4E" stroke-width="2" stroke-linecap="round" stroke-linejoin="round"/>
<path d="M6 21H16M1 9H21H1ZM1 15H21H1ZM7.5 1V5V1ZM14.5 1V5V1ZM7.5 9V21V9ZM14.5 9V21V9ZM21 5.5V18.5V5.5ZM1 5.5V18.5V5.5Z" stroke="#4E4E4E" stroke-width="2" stroke-linecap="round" stroke-linejoin="round"/>
</svg>
