<svg width="339" height="88" viewBox="0 0 339 88" fill="none" xmlns="http://www.w3.org/2000/svg">
<path d="M28.2264 26.7994L39.3358 8.99854H56V9.73526H54.6717C53.4641 9.73526 52.4981 9.87464 51.7736 10.1534C51.2704 10.3392 50.8679 10.6512 50.566 11.0892C50.3447 11.4078 50.234 12.2375 50.234 13.5782V31.3791C50.234 32.7596 50.3447 33.6224 50.566 33.9676C50.7874 34.3127 51.2403 34.618 51.9245 34.8835C52.6088 35.1357 53.5245 35.2618 54.6717 35.2618H56V35.9985H34.6264V35.2618H35.9547C37.1623 35.2618 38.1283 35.1224 38.8528 34.8437C39.356 34.6578 39.7585 34.3392 40.0604 33.8879C40.2818 33.5693 40.3925 32.733 40.3925 31.3791V11.368L24.6943 35.9985H23.9698L8.03019 11.5472V30.5627C8.03019 31.8901 8.0805 32.7065 8.18113 33.0118C8.44277 33.6755 9.00629 34.2198 9.8717 34.6446C10.7572 35.0561 12.1358 35.2618 14.0075 35.2618V35.9985H0V35.2618H0.422642C1.3283 35.2751 2.17358 35.1822 2.95849 34.983C3.7434 34.7707 4.33711 34.4919 4.73962 34.1468C5.14214 33.8016 5.45409 33.3171 5.67547 32.6932C5.71572 32.5472 5.73585 31.8702 5.73585 30.6623V13.5782C5.73585 12.2109 5.62516 11.3614 5.40377 11.0295C5.18239 10.6844 4.72956 10.3857 4.04528 10.1335C3.36101 9.868 2.44528 9.73526 1.29811 9.73526H0V8.99854H16.7245L28.2264 26.7994Z" fill="white"/>
<path d="M83.2188 9.01199C89.9688 8.85275 95.4479 10.1068 99.6562 12.7741C103.885 15.4413 106 18.7788 106 22.7863C106 26.21 104.427 29.2223 101.281 31.8232C97.1146 35.2734 91.2292 36.9985 83.625 36.9985C76 36.9985 70.1042 35.353 65.9375 32.0621C62.6458 29.4611 61 26.3759 61 22.8062C61 18.7987 63.1354 15.4612 67.4062 12.794C71.6979 10.1134 76.9688 8.85275 83.2188 9.01199ZM83.5938 10.2859C79.7188 10.2859 76.7708 11.5466 74.75 14.0679C73.1042 16.138 72.2812 19.1105 72.2812 22.9854C72.2812 27.5901 73.5521 30.9938 76.0938 33.1967C77.8646 34.736 80.3438 35.5057 83.5312 35.5057C85.6771 35.5057 87.4688 35.1739 88.9062 34.5104C90.7396 33.6611 92.1667 32.3076 93.1875 30.4498C94.2083 28.5787 94.7188 26.1436 94.7188 23.1446C94.7188 19.575 94.1979 16.9077 93.1562 15.1428C92.1146 13.3646 90.7812 12.1105 89.1562 11.3807C87.5521 10.6508 85.6979 10.2859 83.5938 10.2859Z" fill="white"/>
<path d="M110 35.9985V35.2618H111.482C112.778 35.2618 113.766 35.1423 114.447 34.9034C115.15 34.6512 115.666 34.3127 115.996 33.8879C116.193 33.6092 116.292 32.7729 116.292 31.3791V13.618C116.292 12.2375 116.171 11.3746 115.93 11.0295C115.688 10.6844 115.194 10.3857 114.447 10.1335C113.723 9.868 112.734 9.73526 111.482 9.73526H110V8.99854H129.996C135.333 8.99854 139.627 9.43659 142.877 10.3127C146.852 11.3879 149.861 13.014 151.903 15.191C153.968 17.368 155 19.8304 155 22.5782C155 24.4764 154.495 26.2286 153.485 27.8348C152.474 29.4277 151.168 30.7485 149.564 31.7972C147.961 32.8326 146.105 33.6689 143.997 34.3061C141.911 34.93 139.352 35.4145 136.321 35.7596C134.982 35.9189 132.873 35.9985 129.996 35.9985H110ZM127.031 10.5317V31.5981C127.031 32.7131 127.119 33.3968 127.295 33.649C127.471 33.9012 127.767 34.0937 128.184 34.2264C128.777 34.4255 129.634 34.5251 130.754 34.5251C134.422 34.5251 137.222 33.7684 139.154 32.2552C141.79 30.2109 143.108 27.0384 143.108 22.7375C143.108 19.2729 142.207 16.5052 140.406 14.4344C138.979 12.8149 137.145 11.7131 134.905 11.1291C133.324 10.7176 130.699 10.5184 127.031 10.5317Z" fill="white"/>
<path d="M175.772 10.5516V21.5428H176.648C179.438 21.5428 181.46 21.0052 182.715 19.93C183.969 18.8547 184.769 17.2684 185.115 15.1711H186.348V29.3083H185.115C184.856 27.7684 184.304 26.5074 183.461 25.5251C182.639 24.5428 181.676 23.8857 180.573 23.5538C179.47 23.2087 177.87 23.0361 175.772 23.0361V30.6423C175.772 32.1291 175.869 33.0384 176.064 33.3702C176.28 33.7021 176.67 33.9742 177.232 34.1866C177.794 34.399 178.703 34.5052 179.957 34.5052H182.585C186.694 34.5052 189.981 33.9211 192.447 32.753C194.934 31.5848 196.718 29.8061 197.8 27.4167H199L197.021 35.9985H159V35.2618H160.46C161.736 35.2618 162.763 35.1224 163.542 34.8437C164.104 34.6578 164.537 34.3392 164.839 33.8879C165.077 33.5693 165.196 32.733 165.196 31.3791V13.618C165.196 12.3968 165.142 11.6468 165.034 11.368C164.818 10.9034 164.418 10.545 163.834 10.2928C163.012 9.9211 161.887 9.73526 160.46 9.73526H159V8.99854H195.821V16.983H194.588C193.961 15.0317 193.074 13.6313 191.928 12.7817C190.803 11.9322 189.203 11.3083 187.127 10.91C185.915 10.6711 183.644 10.5516 180.314 10.5516H175.772Z" fill="white"/>
<path d="M242 26.5207L240.415 35.9985H203V35.2618H204.398C205.621 35.2618 206.605 35.1224 207.351 34.8437C207.889 34.6578 208.304 34.3392 208.594 33.8879C208.822 33.5693 208.935 32.733 208.935 31.3791V13.618C208.935 12.2375 208.822 11.3746 208.594 11.0295C208.366 10.6844 207.9 10.3857 207.195 10.1335C206.512 9.868 205.579 9.73526 204.398 9.73526H203V8.99854H225.468V9.73526H223.634C222.412 9.73526 221.428 9.87464 220.682 10.1534C220.143 10.3392 219.719 10.6578 219.408 11.1092C219.18 11.4277 219.066 12.264 219.066 13.618V30.8215C219.066 32.2021 219.19 33.0848 219.439 33.4698C219.688 33.8415 220.175 34.1202 220.9 34.3061C221.418 34.4255 222.671 34.4853 224.66 34.4853H228.171C230.409 34.4853 232.273 34.233 233.765 33.7286C235.257 33.2242 236.541 32.4277 237.618 31.3392C238.716 30.2507 239.752 28.6446 240.726 26.5207H242Z" fill="white"/>
<path d="M1.936 55V49.5C1.936 49.28 1.936 49.06 1.936 48.84L6.567 55H7.425V47.3H6.501V52.789C6.501 53.009 6.501 53.229 6.501 53.449L1.87 47.3H1.012V55H1.936ZM18.3546 47.3V55H23.6126V54.12H19.2786V51.557H23.2166V50.677H19.2786V48.18H23.5466V47.3H18.3546ZM39.5089 47.3V52.14C39.5089 53.702 38.5409 54.252 37.2209 54.252C35.8899 54.252 34.9219 53.702 34.9219 52.14V47.3H33.9979V52.184C33.9979 54.384 35.5049 55.132 37.2209 55.132C38.9259 55.132 40.4329 54.384 40.4329 52.184V47.3H39.5089ZM52.2021 55V51.964H54.0501L56.5691 55H57.7241L55.1171 51.887C56.2061 51.689 57.1741 51.051 57.1741 49.632C57.1741 47.872 55.6781 47.3 54.2921 47.3H51.2781V55H52.2021ZM52.2021 48.18H54.3361C55.2601 48.18 56.2391 48.477 56.2391 49.632C56.2391 50.776 55.2601 51.084 54.3361 51.084H52.2021V48.18ZM67.9026 55L68.6946 53.141H72.8416L73.6336 55H74.6236L71.2796 47.3H70.2566L66.9016 55H67.9026ZM70.6416 48.543C70.6856 48.444 70.7186 48.356 70.7626 48.246C70.8066 48.356 70.8396 48.444 70.8836 48.543L72.4786 52.283H69.0576L70.6416 48.543ZM84.0404 49.203C84.0404 51.909 88.6274 51.04 88.6274 53.108C88.6274 53.977 87.7144 54.252 86.6474 54.252C85.7674 54.252 84.8874 54.043 84.0734 53.548V54.472C84.8214 54.89 85.7124 55.132 86.7134 55.132C88.1874 55.143 89.5624 54.571 89.5624 53.042C89.5624 50.281 84.9754 51.117 84.9754 49.17C84.9754 48.345 85.7344 48.048 86.7464 48.048C87.5384 48.037 88.3964 48.257 89.0124 48.653V47.729C88.3964 47.377 87.5274 47.168 86.6804 47.168C85.2834 47.168 84.0404 47.828 84.0404 49.203ZM106.997 47.3L103.818 52.052L100.639 47.3H99.847V55H100.771V49.049L103.532 53.185H104.104L106.865 49.049V55H107.789V47.3H106.997ZM118.792 55L119.584 53.141H123.731L124.523 55H125.513L122.169 47.3H121.146L117.791 55H118.792ZM121.531 48.543C121.575 48.444 121.608 48.356 121.652 48.246C121.696 48.356 121.729 48.444 121.773 48.543L123.368 52.283H119.947L121.531 48.543ZM136.445 55V51.964H138.293L140.812 55H141.967L139.36 51.887C140.449 51.689 141.417 51.051 141.417 49.632C141.417 47.872 139.921 47.3 138.535 47.3H135.521V55H136.445ZM136.445 48.18H138.579C139.503 48.18 140.482 48.477 140.482 49.632C140.482 50.776 139.503 51.084 138.579 51.084H136.445V48.18ZM151.028 47.3V48.18H153.734V55H154.658V48.18H157.364V47.3H151.028ZM167.434 47.3V55H168.358V52.272H170.063C171.845 52.272 173.33 51.711 173.33 49.786C173.33 47.861 171.845 47.3 170.063 47.3H167.434ZM172.395 49.786C172.395 51.084 171.361 51.392 170.107 51.392H168.358V48.18H170.107C171.372 48.18 172.395 48.477 172.395 49.786ZM189.106 47.3V50.699H184.541V47.3H183.617V55H184.541V51.579H189.106V55H190.03V47.3H189.106ZM200.442 51.15C200.442 53.141 201.773 55.132 204.468 55.132C207.163 55.132 208.494 53.141 208.494 51.15C208.494 49.159 207.163 47.168 204.468 47.168C201.773 47.168 200.442 49.159 200.442 51.15ZM207.559 51.15C207.559 52.734 206.558 54.252 204.468 54.252C202.378 54.252 201.377 52.734 201.377 51.15C201.377 49.566 202.378 48.048 204.468 48.048C206.558 48.048 207.559 49.566 207.559 51.15ZM219.838 55V49.5C219.838 49.28 219.838 49.06 219.838 48.84L224.469 55H225.327V47.3H224.403V52.789C224.403 53.009 224.403 53.229 224.403 53.449L219.772 47.3H218.914V55H219.838ZM236.257 47.3V55H241.515V54.12H237.181V51.557H241.119V50.677H237.181V48.18H241.449V47.3H236.257Z" fill="white"/>
<path d="M302.665 13.6318C302.246 13.6125 301.968 13.5913 301.688 13.5913C294.325 13.5913 286.962 13.6067 279.602 13.5817C278.789 13.5797 278.517 13.7801 278.459 14.5336C277.769 23.5035 277.247 32.4889 276.272 41.4338C275.002 53.0938 273.29 64.7114 269.95 76.0688C268.918 79.5778 267.289 82.8074 264.52 85.5359C261.373 88.6345 257.168 88.3859 254.203 87.091C250.708 85.5629 248.922 82.3006 249.455 78.7935C249.756 76.8146 250.44 74.9974 251.712 73.3576C253.443 71.1262 255.144 68.8755 256.86 66.6345C260.519 61.8614 262.216 56.439 263.405 50.8084C265.17 42.4512 265.454 33.9707 266.191 25.5268C266.505 21.91 266.777 18.2892 267.066 14.6704C267.092 14.3563 267.1 14.0422 267.13 13.5123C264.758 13.6164 262.468 13.6395 260.196 13.8341C254.144 14.3525 249.784 17.3643 246.42 21.7558C245.309 23.2049 243.5 25.9985 242.5 28.4985C241.5 30.9985 240.88 35.9658 240.5 35.9985C239.563 36.0775 233.215 33.9985 232 33.9985C238.5 30.4985 240.911 21.4205 241.965 18.8827C243.94 14.1174 246.783 9.83568 250.644 6.09547C254.099 2.74836 258.255 0.815624 263.273 0.453357C266.164 0.245246 269.062 0.0275009 271.959 0.023647C293.444 -0.012965 314.929 0.00437751 336.414 0.00245056C336.87 0.00245056 337.325 0.00245056 337.856 0.00245056C337.856 4.52115 337.856 8.96855 337.856 13.5393C337.469 13.5566 337.061 13.5875 336.656 13.5875C329.684 13.5913 322.71 13.5875 315.738 13.5952C313.782 13.5971 314.128 13.441 313.865 15.0134C311.714 27.8565 310.59 40.7806 310.129 53.7567C310.013 57.0344 310.032 60.316 310.996 63.5147C312.291 67.808 315.024 70.9586 319.936 72.0858C327.036 73.716 332.888 69.9296 334.084 63.0658C334.133 62.7844 334.18 62.5012 334.239 62.1505C335.447 62.1505 336.626 62.1505 338.002 62.1505C337.543 64.4609 337.163 66.7327 336.628 68.9757C335.734 72.7275 334.468 76.381 332.107 79.6086C329.021 83.8267 324.961 86.9253 319.291 87.7885C312.338 88.8464 305.744 85.4338 302.525 79.2155C300.942 76.1613 300.195 72.8932 299.711 69.5731C298.36 60.3199 298.581 51.0435 299.481 41.7845C300.352 32.83 301.469 23.8966 302.482 14.9537C302.525 14.549 302.592 14.1405 302.665 13.6318Z" fill="white"/>
</svg>
